<svg width="16" height="16" viewBox="0 0 16 16" fill="none" xmlns="http://www.w3.org/2000/svg">
<path fill-rule="evenodd" clip-rule="evenodd" d="M7.29289 15.7071C7.68342 16.0976 8.31658 16.0976 8.70711 15.7071C9.09763 15.3166 9.09763 14.6834 8.70711 14.2929L3.41421 9L15 9C15.5523 9 16 8.55228 16 8C16 7.44771 15.5523 7 15 7L3.41421 7L8.70711 1.70711C9.09763 1.31658 9.09763 0.683417 8.70711 0.292893C8.31658 -0.0976321 7.68342 -0.0976322 7.29289 0.292893L0.293608 7.29218C0.291191 7.29459 0.288788 7.29701 0.286396 7.29945C0.109903 7.47921 0.00080181 7.72536 4.51434e-06 7.997C1.65323e-06 7.998 6.9947e-07 7.999 6.99382e-07 8C6.99295e-07 8.001 1.65288e-06 8.002 4.51382e-06 8.003C0.000399323 8.1375 0.0273473 8.26575 0.0758798 8.38278C0.123571 8.49805 0.193742 8.6062 0.286396 8.70055C0.288754 8.70295 0.291125 8.70534 0.293507 8.70772M7.29289 15.7071L0.293507 8.70772Z" fill="black"/>
</svg>
