<svg width="17" height="15" viewBox="0 0 17 15" fill="none" xmlns="http://www.w3.org/2000/svg">
<path fill-rule="evenodd" clip-rule="evenodd" d="M9.37958 2.08159L8.04453 3.45096L6.70834 2.08041C5.45447 0.790046 3.48439 0.63904 2.20918 1.72054C0.68345 3.01711 0.59989 5.35535 1.96773 6.76342L8.04296 13.0075L14.1182 6.76342C15.489 5.35534 15.4057 3.01679 13.8795 1.72024C12.6047 0.639401 10.6371 0.79006 9.37958 2.08159ZM14.527 0.958136C16.5003 2.63462 16.604 5.64353 14.8349 7.46077L8.75468 13.71C8.3619 14.1135 7.72403 14.1135 7.33124 13.71L1.251 7.46077C-0.514943 5.64353 -0.411249 2.63462 1.56208 0.958136C3.25518 -0.478056 5.76241 -0.248121 7.34539 1.30306C7.37237 1.32949 7.39908 1.35631 7.42551 1.38351L8.04453 2.01845L8.66356 1.38351C8.69002 1.35634 8.71675 1.32954 8.74375 1.30313C10.3296 -0.248113 12.8339 -0.47808 14.527 0.958136Z" fill="black"/>
</svg>
